<?xml version="1.0" encoding="UTF-8"?>
<svg version="1.1" xmlns="http://www.w3.org/2000/svg" width="1254" height="1254">
<path d="M0 0 C301.62 0 603.24 0 914 0 C909.52948131 18.99970445 909.52948131 18.99970445 907.6484375 25.5703125 C907.22124313 27.0807475 906.79519898 28.59150815 906.37011719 30.10253906 C906.14868042 30.88939087 905.92724365 31.67624268 905.69909668 32.48693848 C903.25852134 41.26013989 900.95888795 50.07296634 898.625 58.875 C898.33897919 59.952052 898.05295837 61.029104 897.75827026 62.13879395 C894.14567893 75.74932106 890.61130065 89.37191694 887.25268555 103.04736328 C885.40903192 110.50665015 883.36190262 117.88774279 881.2019043 125.26098633 C878.96062551 132.97077525 877.02839495 140.74722387 875.11132812 148.54296875 C873.54255782 154.90083468 871.83747534 161.18562117 869.9921875 167.46875 C868.75447766 171.87382755 867.65633518 176.30737223 866.5625 180.75 C864.9749504 187.19755674 863.30706335 193.61046202 861.5 200 C859.50961689 207.0406205 857.6815048 214.11071834 855.96289062 221.22265625 C854.67364941 226.49723611 853.25065661 231.72906124 851.78515625 236.95703125 C848.36702507 249.16431754 845.16366984 261.42839573 841.9375 273.6875 C840.71782242 278.31650498 839.49756437 282.94535689 838.27734375 287.57421875 C837.84196793 289.22635376 837.84196793 289.22635376 837.39779663 290.91186523 C834.5525275 301.70567151 831.68155904 312.49233191 828.77124023 323.26879883 C825.30367173 336.11054746 821.86681338 348.96049248 818.4375 361.8125 C818.18774414 362.74838959 817.93798828 363.68427917 817.68066406 364.64852905 C814.52099668 376.49287933 811.37857396 388.34167977 808.25390625 400.1953125 C807.94053818 401.38370224 807.6271701 402.57209198 807.30430603 403.79649353 C805.77426238 409.59986448 804.24596393 415.40368629 802.72045898 421.20825195 C800.18905602 430.82612145 797.638656 440.43019857 794.86767578 449.98217773 C793.12457176 456.04478571 791.52873031 462.14787171 789.90820312 468.24414062 C786.71283452 480.19496886 783.33654335 492.08377377 780 504 C566.49 504 352.98 504 133 504 C131.02 496.08 129.04 488.16 127 480 C125.16119128 473.55054464 125.16119128 473.55054464 123.30126953 467.10717773 C121.02603578 459.28346489 119.01354309 451.39402705 117 443.5 C114.79563647 434.86332666 112.5601579 426.24519156 110.0625 417.6875 C107.47071661 408.77932886 105.07567979 399.82489282 102.71862793 390.85220337 C99.72839344 379.47406006 96.68987528 368.10928696 93.62890625 356.75 C93.23249892 355.27825301 92.8361062 353.80650209 92.43972778 352.33474731 C90.83883652 346.39149004 89.23793426 340.44823819 87.63220215 334.50628662 C86.48830852 330.27300357 85.34645748 326.03917524 84.20703125 321.8046875 C84.02332851 321.1220068 83.83962578 320.4393261 83.65035629 319.7359581 C80.98177597 309.80455028 78.43123965 299.84785043 75.9703064 289.86280823 C74.42240786 283.60610282 72.73767683 277.41468779 70.92529297 271.22900391 C69.35232929 265.73981719 67.96858006 260.20216359 66.56509399 254.66766357 C63.15227736 241.21280356 63.15227736 241.21280356 59.3125 227.875 C57.2035229 220.95947633 55.51530749 213.97440045 53.87207031 206.93505859 C51.00949198 194.6920656 47.76152198 182.57182428 44.25 170.5 C40.99640967 159.29812127 38.12470466 148.00014515 35.24707031 136.69726562 C34.88089842 135.25910464 34.51468792 133.82095349 34.1484375 132.3828125 C33.96950958 131.68008209 33.79058167 130.97735168 33.60623169 130.25332642 C32.07552258 124.25882278 30.48659238 118.2808869 28.88427734 112.30517578 C28.15473093 109.57833997 27.4350806 106.84953904 26.7265625 104.1171875 C24.9080301 97.10804175 23.05213778 90.11785896 21.01928711 83.16748047 C17.53355448 71.24495041 14.46480838 59.22630481 11.41281128 47.18719482 C8.45319803 35.5169857 5.39110604 23.89527829 1.98071289 12.34667969 C1.71637451 11.43563477 1.45203613 10.52458984 1.1796875 9.5859375 C0.95007324 8.8129834 0.72045898 8.0400293 0.48388672 7.24365234 C0 5 0 5 0 0 Z " fill="#2B2B2A" transform="translate(171,484)"/>
<path d="M0 0 C0.99399876 -0.00594739 1.98799751 -0.01189478 3.01211745 -0.01802239 C6.38752052 -0.03690846 9.76291042 -0.04853323 13.13834572 -0.06017971 C15.5650033 -0.07205833 17.99165895 -0.0843349 20.41831267 -0.09697813 C26.41699068 -0.12693318 32.41567201 -0.15196428 38.41438002 -0.17477602 C43.40365062 -0.19387557 48.39290709 -0.21526072 53.38216209 -0.23806095 C108.36849231 -0.48873461 163.35526162 -0.63050743 218.34204079 -0.73819005 C226.30796706 -0.75384885 234.27389208 -0.77011319 242.23981667 -0.78660488 C243.12005262 -0.78841414 244.00028857 -0.7902234 244.90719834 -0.79208748 C273.43997891 -0.85111797 301.97221498 -0.96468243 330.50468916 -1.10754779 C359.82835548 -1.25410775 389.15172462 -1.34843531 418.4757563 -1.37599103 C422.61761639 -1.37990117 426.75947566 -1.38439386 430.90133476 -1.38923359 C431.71650539 -1.39016586 432.53167602 -1.39109812 433.37154879 -1.39205864 C446.49244872 -1.4085706 459.61250526 -1.47988451 472.73307156 -1.57153293 C485.9237767 -1.66245931 499.11360515 -1.69489601 512.30460481 -1.66779441 C520.14197768 -1.65345055 527.97621804 -1.68364778 535.81305336 -1.77788307 C541.66647268 -1.84333943 547.51769564 -1.82509336 553.37132736 -1.77442878 C555.73831133 -1.76696946 558.10556803 -1.78661157 560.47204702 -1.83606888 C577.7242857 -2.17533428 577.7242857 -2.17533428 582.70181635 1.75264199 C586.15474311 5.5293342 588.56229441 9.71701785 590.76727815 14.31079943 C591.97138504 16.72504289 593.48286912 18.82575212 595.1192112 20.96461582 C595.83766212 21.95086948 595.83766212 21.95086948 596.57062721 22.95704746 C597.04427711 23.60407627 597.51792702 24.25110508 598.00592995 24.91774082 C603.86463718 32.9773334 609.58988764 41.1251666 615.2910862 49.29664707 C618.40886182 53.76531221 621.54706402 58.2191771 624.69342995 62.66774082 C634.77119783 76.92658563 644.75579639 91.25023038 654.72272682 105.58668613 C663.82076453 118.67006949 672.95552758 131.72732492 682.15754128 144.73780918 C684.81469282 148.49716703 687.46161111 152.26332538 690.0957737 156.03883457 C695.7542249 164.14894079 701.43903631 172.23278174 707.25592995 180.23024082 C712.2848178 187.14505702 717.13598621 194.1662836 721.93732643 201.24049473 C727.54574077 209.47552643 733.3213073 217.6316115 739.49811745 225.45289707 C740.69342995 227.16774082 740.69342995 227.16774082 740.69342995 229.16774082 C440.06342995 229.16774082 139.43342995 229.16774082 -170.30657005 229.16774082 C-165.80981982 221.29842792 -165.80981982 221.29842792 -163.49407005 218.14430332 C-162.98223167 217.44232822 -162.4703933 216.74035313 -161.94304466 216.01710606 C-161.40300804 215.28306553 -160.86297142 214.549025 -160.30657005 213.79274082 C-159.14043957 212.19303844 -157.97509283 210.59276448 -156.8104763 208.99195957 C-156.224114 208.18677891 -155.63775169 207.38159824 -155.03362083 206.55201817 C-152.40622548 202.92477149 -149.82178939 199.26788903 -147.24407005 195.60524082 C-146.75213158 194.90648838 -146.2601931 194.20773594 -145.7533474 193.48780918 C-144.76253959 192.07986187 -143.77197848 190.67174091 -142.78166771 189.26344395 C-141.3172249 187.18287839 -139.84962814 185.1045794 -138.3807888 183.02711582 C-133.00315266 175.42092583 -127.64506172 167.80146249 -122.30657005 160.16774082 C-115.05686151 149.80109409 -107.76525129 139.46442533 -100.45500755 129.14039707 C-94.05183837 120.09130815 -87.7045616 111.00452694 -81.37883568 101.90113926 C-70.27230901 85.91896385 -59.08357879 69.99559857 -47.84758568 54.10426426 C-46.37521317 52.0215157 -44.90326689 49.93846687 -43.43157005 47.85524082 C-42.94084007 47.1607584 -42.45011009 46.46627598 -41.94450951 45.75074863 C-38.66107393 41.09943624 -35.39666344 36.43516804 -32.13884544 31.76588535 C-26.81051645 24.13172548 -21.44299191 16.52892819 -15.99407005 8.98024082 C-15.15791161 7.82117222 -15.15791161 7.82117222 -14.30486107 6.63868809 C-9.66410613 0.23086239 -8.08555846 0.01672942 0 0 Z " fill="#2B2B2B" transform="translate(342.3065700531006,228.83225917816162)"/>
<path d="M0 0 C3.56588503 0.00479547 7.13171944 -0.00783348 10.69758737 -0.01801741 C17.65673021 -0.03508683 24.6157823 -0.03607044 31.57494061 -0.03080451 C37.23841678 -0.02673982 42.90186642 -0.02823341 48.56534135 -0.03355277 C49.37572415 -0.03430119 50.18610695 -0.03504961 51.02104681 -0.03582071 C52.66805804 -0.0373524 54.31506927 -0.03889075 55.96208049 -0.04043568 C71.35641713 -0.05411741 86.75070275 -0.04875325 102.14503819 -0.03725047 C116.18536493 -0.02731921 130.22555986 -0.04026462 144.26586627 -0.06418466 C158.73525679 -0.08864721 173.20458611 -0.09816623 187.67399687 -0.09153193 C195.77640152 -0.08805599 203.87870491 -0.09016359 211.98109376 -0.10778296 C218.87697567 -0.12259476 225.77268493 -0.12302424 232.66856378 -0.10571205 C236.17701825 -0.09727339 239.6851655 -0.09487424 243.19360292 -0.1103636 C272.02052386 -0.2109968 303.98419234 3.10106366 325.92509592 24.07870805 C332.30863779 30.76515964 337.09677962 37.23034955 339.05400217 46.42245805 C339.81108203 49.91503463 340.62333168 53.38850174 341.47197092 56.85995805 C347.47923384 82.00878937 347.47923384 82.00878937 341.52275217 92.78183305 C330.08709286 109.46444193 309.5504298 118.21377994 290.15654123 121.97592485 C279.02608031 123.89764859 267.92310955 124.55622432 256.63957345 124.54054582 C254.82023617 124.54394416 254.82023617 124.54394416 252.96414459 124.54741114 C249.62799211 124.55261349 246.2918939 124.55340169 242.95574129 124.55221677 C239.345445 124.55201144 235.73515655 124.55754414 232.12486398 124.56227434 C225.06204576 124.57055374 217.9992359 124.57332797 210.93641323 124.57388671 C205.18883975 124.57436328 199.441269 124.57642505 193.69369638 124.57958734 C177.36434875 124.58838751 161.03500768 124.59300786 144.70565766 124.59225687 C143.82674416 124.59221691 142.94783066 124.59217695 142.04228342 124.59213579 C141.16228463 124.59209491 140.28228584 124.59205403 139.37562042 124.59201191 C125.13045327 124.5916059 110.88531261 124.60116566 96.64015311 124.61527415 C81.98006037 124.62967787 67.31998051 124.63654211 52.65988052 124.63568038 C44.44283908 124.63534972 36.2258254 124.63803859 28.00879037 124.64885843 C21.00952641 124.65801631 14.01030278 124.66009577 7.01103538 124.653349 C3.44815808 124.65010989 -0.1146421 124.64993111 -3.67751181 124.65870225 C-41.68312546 124.74638902 -41.68312546 124.74638902 -57.66474783 120.15683305 C-58.44479178 119.93994829 -59.22483572 119.72306352 -60.02851737 119.49960649 C-76.46109358 114.76416846 -92.5667621 107.15755061 -102.15693533 92.39902055 C-109.66661231 78.36369324 -102.88956 59.60780489 -98.85224783 45.40683305 C-93.83361648 29.88448713 -84.52599394 19.78462733 -69.93549979 12.22641313 C-65.10751998 9.85870256 -60.17774733 7.86570484 -55.10224783 6.09433305 C-54.14125174 5.74882402 -54.14125174 5.74882402 -53.16084158 5.39633501 C-35.94470697 -0.21001858 -17.88911148 -0.04066598 0 0 Z " fill="#AEADAD" transform="translate(507.8522478342056,281.5931669473648)"/>
<path d="M0 0 C1.85179123 0.01294528 3.70361875 0.02139205 5.55545044 0.02560425 C9.39711619 0.04529448 13.23588865 0.1002202 17.07666016 0.18505859 C22.00073633 0.29355101 26.92286072 0.339659 31.84800529 0.36335945 C36.56559653 0.388397 41.28270864 0.44263354 46 0.5 C46.89637051 0.50867222 47.79274101 0.51734444 48.71627426 0.52627945 C51.24098411 0.55624299 53.76436411 0.60687178 56.28857422 0.66455078 C57.03654266 0.67104645 57.78451111 0.67754211 58.55514526 0.68423462 C63.56946872 0.83050289 63.56946872 0.83050289 65.76107645 2.35847574 C67.58178036 4.89116445 67.44859623 6.64739697 67.45342255 9.75385952 C67.46247919 10.92081999 67.47153583 12.08778046 67.48086691 13.29010338 C67.47553898 14.5782131 67.47021106 15.86632283 67.46472168 17.19346619 C67.46960792 18.57089298 67.47579647 19.94831567 67.48317957 21.32573134 C67.49963634 25.11941772 67.4972496 28.91289708 67.4918046 32.70660675 C67.48914144 36.79462946 67.5036527 40.88259609 67.51589966 44.97059631 C67.53698596 52.98267288 67.54149269 60.99467714 67.53971177 69.00677817 C67.53840579 75.51697955 67.54219992 82.0271583 67.54963684 88.53735542 C67.55173596 90.41032984 67.55383356 92.28330425 67.55592966 94.15627867 C67.55697319 95.08841606 67.55801672 96.02055345 67.55909187 96.98093743 C67.57800704 114.62230976 67.57694009 132.26364054 67.57012254 149.90501881 C67.56454574 166.05557412 67.58537604 182.20597087 67.61848301 198.35648911 C67.65218838 214.92711894 67.66739231 231.49767274 67.66276598 248.0683375 C67.66051814 257.3766252 67.66581028 266.68476633 67.69065857 275.99302483 C67.71163102 283.91706642 67.71530419 291.84088107 67.69635898 299.76493185 C67.68717602 303.81005752 67.6861356 307.85475962 67.70671463 311.89985275 C67.72533326 315.60043917 67.72102531 319.30025241 67.69816881 323.00080854 C67.69196032 324.97906662 67.71044809 326.95735413 67.72970533 328.93552822 C67.71789999 330.10509644 67.70609466 331.27466466 67.69393158 332.47967434 C67.69420396 333.49114196 67.69447635 334.50260959 67.69475698 335.54472774 C66.83839259 339.15831674 65.124183 340.20390089 62.0703125 342.1796875 C60.01383114 342.68584538 60.01383114 342.68584538 57.96531677 342.6943512 C57.18170776 342.70707565 56.39809875 342.71980011 55.59074402 342.73291016 C54.74538589 342.72638428 53.90002777 342.7198584 53.02905273 342.71313477 C52.12766571 342.72175034 51.22627869 342.73036591 50.2975769 342.73924255 C47.32439289 342.76190664 44.35215088 342.7551639 41.37890625 342.74609375 C39.31054911 342.7513284 37.24219436 342.7576043 35.17384338 342.76487732 C30.84209955 342.7752818 26.51068422 342.77071815 22.17895508 342.75610352 C16.62454072 342.73889868 11.07115915 342.76243207 5.51686001 342.79759312 C1.24718862 342.81953672 -3.02223437 342.81813327 -7.2919445 342.8098278 C-9.34009879 342.80900695 -11.38827108 342.81589588 -13.43637276 342.83059883 C-16.2975055 342.84799245 -19.15676541 342.83354662 -22.01782227 342.81079102 C-22.86520462 342.82248322 -23.71258698 342.83417542 -24.58564758 342.84622192 C-25.36643677 342.83356796 -26.14722595 342.820914 -26.95167542 342.80787659 C-27.62730813 342.80729028 -28.30294085 342.80670397 -28.99904728 342.80609989 C-32.255753 341.74943444 -33.2236155 340.10858784 -34.9296875 337.1796875 C-35.4974056 333.98885508 -35.45239884 330.8527426 -35.41070557 327.61894226 C-35.41412327 326.65095178 -35.41754097 325.6829613 -35.42106223 324.68563777 C-35.42765506 321.43945738 -35.40564126 318.19410236 -35.38378906 314.94799805 C-35.38266089 312.62216715 -35.38329385 310.29633483 -35.38555908 307.97050476 C-35.38670833 301.65269609 -35.36316449 295.33519021 -35.33526325 289.017452 C-35.31281505 283.08505089 -35.30877178 277.15266161 -35.30465576 271.22022376 C-35.29590407 259.47089604 -35.26929198 247.72167948 -35.23144531 235.97241211 C-35.19472192 224.55998287 -35.16641179 213.14758383 -35.14941406 201.73510742 C-35.14836317 201.03149008 -35.14731227 200.32787274 -35.14622954 199.60293367 C-35.14100934 196.07304621 -35.13595452 192.54315855 -35.13098192 189.01327074 C-35.08952383 159.73533733 -35.01878124 130.4575139 -34.9296875 101.1796875 C-35.95995308 101.79802302 -36.99021866 102.41635855 -38.05170441 103.05343151 C-39.41666995 103.87255333 -40.7816374 104.69167198 -42.14660645 105.51078796 C-42.82408558 105.91740268 -43.50156471 106.3240174 -44.19957352 106.74295378 C-48.84350393 109.52965524 -53.49158102 112.30916141 -58.1484375 115.07421875 C-58.82088501 115.47372238 -59.49333252 115.87322601 -60.18615723 116.28483582 C-61.57354566 117.10892862 -62.96103614 117.93284966 -64.34863281 118.7565918 C-66.45678299 120.00827505 -68.56433849 121.26095567 -70.671875 122.51367188 C-72.03902692 123.32558075 -73.40621314 124.13743187 -74.7734375 124.94921875 C-75.39021362 125.31594193 -76.00698975 125.6826651 -76.64245605 126.0605011 C-78.40234422 127.10456982 -80.16580781 128.14238017 -81.9296875 129.1796875 C-82.55818604 129.5548349 -83.18668457 129.9299823 -83.83422852 130.3164978 C-90.00152523 133.94349683 -90.00152523 133.94349683 -93.9296875 133.1796875 C-95.5450592 132.11618042 -95.5450592 132.11618042 -96.9296875 130.1796875 C-97.23082322 127.6254564 -97.34992533 125.31359008 -97.33374023 122.75830078 C-97.34060349 122.00511566 -97.34746674 121.25193054 -97.35453796 120.47592163 C-97.37285292 117.98375645 -97.36896135 115.49221811 -97.36328125 113 C-97.36784145 111.26748448 -97.37314654 109.53497078 -97.37916565 107.80245972 C-97.38810643 104.16917581 -97.38566345 100.53611157 -97.37573242 96.90283203 C-97.36425284 92.24984116 -97.38443341 87.59761032 -97.41364956 82.94471931 C-97.43201105 79.36558219 -97.43171903 75.7866271 -97.42601204 72.20745468 C-97.42585876 70.49226695 -97.4319089 68.77706693 -97.44430351 67.06192398 C-97.45920785 64.66075514 -97.44854122 62.26098871 -97.43139648 59.85986328 C-97.44106445 59.15319519 -97.45073242 58.4465271 -97.46069336 57.71844482 C-97.38930388 52.93567842 -96.27306077 50.56357536 -92.9296875 47.1796875 C-91.12475586 45.79272461 -91.12475586 45.79272461 -89.26953125 44.70703125 C-88.2177771 44.07970093 -88.2177771 44.07970093 -87.14477539 43.43969727 C-86.39317139 43.00326904 -85.64156738 42.56684082 -84.8671875 42.1171875 C-83.23875789 41.14721778 -81.61118052 40.17581613 -79.984375 39.203125 C-78.72898926 38.45627441 -78.72898926 38.45627441 -77.44824219 37.69433594 C-73.42280205 35.27345278 -69.45714716 32.76051167 -65.4921875 30.2421875 C-64.707229 29.74460937 -63.92227051 29.24703125 -63.11352539 28.734375 C-61.51864852 27.72334716 -59.92400353 26.71195344 -58.32958984 25.70019531 C-55.92414775 24.17617767 -53.51541404 22.65751022 -51.10546875 21.140625 C-50.30101318 20.63394287 -49.49655762 20.12726074 -48.66772461 19.60522461 C-47.18329264 18.67045729 -45.69848526 17.73628559 -44.21313477 16.80297852 C-43.50858154 16.35881592 -42.80402832 15.91465332 -42.078125 15.45703125 C-41.34085678 15.00465088 -40.60358856 14.55227051 -39.84397888 14.08618164 C-37.60532595 12.621682 -35.52461062 11.12050284 -33.40881348 9.49485779 C-22.25408886 1.21179059 -13.66842947 -0.38450173 0 0 Z " fill="#FDFDFD" transform="translate(628.9296875,565.8203125)"/>
<path d="M0 0 C1.11206597 -0.00311998 2.22413195 -0.00623996 3.36989689 -0.00945449 C7.0799045 -0.0174038 10.78974716 -0.01112272 14.49975586 -0.00482178 C17.16625444 -0.007533 19.83274182 -0.0110226 22.49923706 -0.01544189 C28.9801272 -0.02431621 35.4609709 -0.02242265 41.94186282 -0.01661661 C47.2109304 -0.01209239 52.47998499 -0.01149051 57.74905396 -0.01366425 C58.5001343 -0.01397071 59.25121464 -0.01427718 60.02505499 -0.01459293 C61.55105361 -0.01523241 63.07705222 -0.01588083 64.60305083 -0.01653811 C78.89871795 -0.02223566 93.19435939 -0.01569255 107.4900223 -0.00493738 C119.74555833 0.00399761 132.00105646 0.0024454 144.2565918 -0.0067749 C158.502525 -0.0174877 172.7484357 -0.02168639 186.99437237 -0.01555037 C188.51463 -0.0149133 190.03488763 -0.01428456 191.55514526 -0.01366425 C192.67702031 -0.01320142 192.67702031 -0.01320142 193.82155949 -0.01272924 C199.08182032 -0.01100533 204.34206683 -0.01391084 209.60232544 -0.01862335 C216.01636486 -0.02424341 222.43035535 -0.02269212 228.8443892 -0.01206186 C232.11437897 -0.00682026 235.38427081 -0.00580653 238.65426254 -0.01136017 C242.20432243 -0.01683316 245.75415385 -0.00995991 249.30419922 0 C250.3301825 -0.00446144 251.35616579 -0.00892289 252.41323948 -0.01351953 C263.15928695 0.04487063 274.96012509 1.99296036 283.52709961 9.00396729 C289.51201458 15.5689804 290.76725175 26.78517951 291.21459961 35.37896729 C291.01294216 39.23350531 290.40950111 42.09322786 287.52319336 44.91412354 C276.49932028 52.80804518 265.20675637 54.56254137 251.97634888 54.5146637 C250.84104386 54.51848924 249.70573885 54.52231479 248.53603065 54.52625626 C244.75322061 54.53652856 240.97056399 54.53260506 237.18774414 54.52862549 C234.46685348 54.5318836 231.74597121 54.53809514 229.02508545 54.54411316 C222.41432346 54.55682798 215.80360214 54.55865789 209.19282998 54.5563129 C203.81654592 54.55452601 198.44027415 54.55628731 193.06399155 54.56053734 C192.2972607 54.56113253 191.53052985 54.56172772 190.74056473 54.56234094 C189.18268284 54.56355276 187.62480096 54.56476689 186.06691907 54.56598332 C171.47453186 54.57684642 156.88216779 54.57470217 142.28977929 54.56859847 C128.95804856 54.56343013 115.62639092 54.57468476 102.29467465 54.59369669 C88.58498277 54.61309683 74.87532542 54.6213273 61.16561973 54.61757344 C53.47694675 54.61566473 45.78833597 54.6181167 38.09967422 54.63228798 C31.55434387 54.64423051 25.00911401 54.64557458 18.46378221 54.63349781 C15.12852995 54.62762918 11.79361096 54.6280961 8.45834732 54.63850021 C4.83266897 54.64899208 1.2074788 54.64084679 -2.41818237 54.62818909 C-3.4580907 54.63556337 -4.49799904 54.64293766 -5.56941974 54.6505354 C-16.71588919 54.56907639 -27.48738587 52.37581481 -36.34790039 45.25396729 C-39.23049949 42.07265325 -40.25009299 39.03642651 -40.78540039 34.75396729 C-40.69139179 33.24982974 -40.53482972 31.74940193 -40.34790039 30.25396729 C-40.20352539 29.07834229 -40.05915039 27.90271729 -39.91040039 26.69146729 C-38.63463107 18.65412057 -37.11156646 12.38064851 -30.34790039 7.25396729 C-20.7836694 1.12021254 -11.14889034 -0.04848046 0 0 Z " fill="#2C2C2C" transform="translate(502.347900390625,315.74603271484375)"/>
<path d="M0 0 C0.66 0.33 1.32 0.66 2 1 C1.07038578 2.15224028 0.1309875 3.29659176 -0.8125 4.4375 C-1.59560547 5.39462891 -1.59560547 5.39462891 -2.39453125 6.37109375 C-4 8 -4 8 -7 9 C-5.44499019 5.18315774 -2.96404505 2.80804268 0 0 Z " fill="#373738" transform="translate(473,322)"/>
<path d="M0 0 C0.66 0.33 1.32 0.66 2 1 C-1.17320782 4.53586014 -3.16743695 6.58578031 -8 7 C-5.42215154 4.35247996 -3.08351902 2.05567935 0 0 Z " fill="#A3A3A2" transform="translate(432,297)"/>
<path d="M0 0 C1 3 1 3 0.00390625 5.04296875 C-0.47175781 5.75066406 -0.94742187 6.45835937 -1.4375 7.1875 C-1.91058594 7.90292969 -2.38367188 8.61835938 -2.87109375 9.35546875 C-3.24363281 9.89816406 -3.61617188 10.44085938 -4 11 C-4.66 10.34 -5.32 9.68 -6 9 C-4.02 6.03 -2.04 3.06 0 0 Z " fill="#3E3E3E" transform="translate(314,255)"/>
<path d="M0 0 C0.66 0.33 1.32 0.66 2 1 C0.35 2.65 -1.3 4.3 -3 6 C-3.99 5.34 -4.98 4.68 -6 4 C-4.02 2.68 -2.04 1.36 0 0 Z " fill="#434443" transform="translate(557,688)"/>
<path d="M0 0 C0.33 0.99 0.66 1.98 1 3 C-0.32 4.32 -1.64 5.64 -3 7 C-3.99 6.67 -4.98 6.34 -6 6 C-4.02 4.02 -2.04 2.04 0 0 Z " fill="#A8A8A7" transform="translate(423,304)"/>
<path d="M0 0 C0.66 0.99 1.32 1.98 2 3 C0.35 4.65 -1.3 6.3 -3 8 C-3.33 7.34 -3.66 6.68 -4 6 C-2.68 4.02 -1.36 2.04 0 0 Z " fill="#3D3D3E" transform="translate(326,238)"/>
<path d="M0 0 C0.66 0.33 1.32 0.66 2 1 C1.34 4.3 0.68 7.6 0 11 C-2 8 -2 8 -1.7578125 5.95703125 C-1.171875 3.97135417 -0.5859375 1.98567708 0 0 Z " fill="#454544" transform="translate(997,807)"/>
</svg>
